Geologica-ThinSharpItalic.ufo
<glyph name="quotesingle" format="2">
  <advance width="420"/>
  <unicode hex="0027"/>
  <outline>
    <contour>
      <point x="270" y="992" type="line"/>
      <point x="360" y="992" type="line"/>
      <point x="461" y="1400" type="line"/>
      <point x="351" y="1400" type="line"/>
    </contour>
  </outline>
</glyph>
<glyph name="parenleft" format="2">
  <advance width="686"/>
  <unicode hex="0028"/>
  <outline>
    <contour>
      <point x="304" y="-230" type="curve"/>
      <point x="392" y="-230" type="line"/>
      <point x="334" y="-66"/>
      <point x="303" y="118"/>
      <point x="304" y="312" type="curve" smooth="yes"/>
      <point x="303" y="762"/>
      <point x="475" y="1282"/>
      <point x="793" y="1604" type="curve"/>
      <point x="690" y="1604" type="line"/>
      <point x="383" y="1266"/>
      <point x="205" y="788"/>
      <point x="205" y="328" type="curve" smooth="yes"/>
      <point x="204" y="132"/>
      <point x="236" y="-58"/>
    </contour>
  </outline>
</glyph>
<glyph name="greater" format="2">
  <advance width="1296"/>
  <unicode hex="003E"/>
  <outline>
    <contour>
      <point x="130" y="232" type="line"/>
      <point x="1146" y="620" type="line"/>
      <point x="1164" y="712" type="line"/>
      <point x="310" y="1090" type="line"/>
      <point x="287" y="981" type="line"/>
      <point x="1002" y="672" type="line"/>
      <point x="157" y="362" type="line"/>
    </contour>
  </outline>
</glyph>
<glyph name="question" format="2">
  <advance width="966"/>
  <unicode hex="003F"/>
  <outline>
    <contour>
      <point x="342" y="378" type="curve"/>
      <point x="462" y="378" type="line"/>
      <point x="472" y="596"/>
      <point x="532" y="664"/>
      <point x="686" y="754" type="curve" smooth="yes"/>
      <point x="870" y="862"/>
      <point x="992" y="960"/>
      <point x="992" y="1130" type="curve" smooth="yes"/>
      <point x="992" y="1320"/>
      <point x="834" y="1430"/>
      <point x="600" y="1430" type="curve" smooth="yes"/>
      <point x="492" y="1430"/>
      <point x="396" y="1408"/>
      <point x="312" y="1366" type="curve"/>
      <point x="284" y="1240" type="line"/>
      <point x="356" y="1288"/>
      <point x="464" y="1318"/>
      <point x="584" y="1318" type="curve" smooth="yes"/>
      <point x="764" y="1318"/>
      <point x="870" y="1250"/>
      <point x="870" y="1112" type="curve" smooth="yes"/>
      <point x="870" y="988"/>
      <point x="776" y="930"/>
      <point x="616" y="838" type="curve" smooth="yes"/>
      <point x="412" y="718"/>
      <point x="350" y="630"/>
    </contour>
    <contour>
      <point x="358" y="-30" type="curve" smooth="yes"/>
      <point x="424" y="-30"/>
      <point x="482" y="18"/>
      <point x="482" y="86" type="curve" smooth="yes"/>
      <point x="482" y="140"/>
      <point x="442" y="178"/>
      <point x="384" y="178" type="curve" smooth="yes"/>
      <point x="318" y="178"/>
      <point x="258" y="132"/>
      <point x="258" y="64" type="curve" smooth="yes"/>
      <point x="258" y="10"/>
      <point x="300" y="-30"/>
    </contour>
  </outline>
</glyph>
<glyph name="A" format="2">
  <advance width="1324"/>
  <unicode hex="0041"/>
  <anchor x="548" y="0" name="bottom"/>
  <anchor x="1186" y="0" name="ogonek"/>
  <anchor x="844" y="1400" name="top"/>
  <anchor x="524" y="1400" name="topleft"/>
  <outline>
    <contour>
      <point x="-66" y="0" type="line"/>
      <point x="66" y="0" type="line"/>
      <point x="298" y="384" type="line"/>
      <point x="980" y="384" type="line"/>
      <point x="1060" y="0" type="line"/>
      <point x="1186" y="0" type="line"/>
      <point x="892" y="1400" type="line"/>
      <point x="792" y="1400" type="line"/>
    </contour>
    <contour>
      <point x="362" y="492" type="line"/>
      <point x="806" y="1226" type="line"/>
      <point x="958" y="492" type="line"/>
    </contour>
  </outline>
</glyph>
<glyph name="B" format="2">
  <advance width="1226"/>
  <unicode hex="0042"/>
  <outline>
    <contour>
      <point x="100" y="0" type="line"/>
      <point x="608" y="0" type="line" smooth="yes"/>
      <point x="874" y="0"/>
      <point x="1074" y="180"/>
      <point x="1074" y="426" type="curve" smooth="yes"/>
      <point x="1074" y="560"/>
      <point x="998" y="682"/>
      <point x="850" y="728" type="curve"/>
      <point x="1032" y="764"/>
      <point x="1176" y="914"/>
      <point x="1176" y="1078" type="curve" smooth="yes"/>
      <point x="1176" y="1280"/>
      <point x="1016" y="1400"/>
      <point x="760" y="1400" type="curve" smooth="yes"/>
      <point x="396" y="1400" type="line"/>
    </contour>
    <contour>
      <point x="238" y="108" type="line"/>
      <point x="358" y="670" type="line"/>
      <point x="648" y="670" type="line" smooth="yes"/>
      <point x="842" y="670"/>
      <point x="960" y="588"/>
      <point x="960" y="430" type="curve" smooth="yes"/>
      <point x="960" y="220"/>
      <point x="826" y="108"/>
      <point x="592" y="108" type="curve" smooth="yes"/>
    </contour>
    <contour>
      <point x="380" y="778" type="line"/>
      <point x="490" y="1292" type="line"/>
      <point x="722" y="1292" type="line" smooth="yes"/>
      <point x="942" y="1292"/>
      <point x="1058" y="1214"/>
      <point x="1058" y="1072" type="curve" smooth="yes"/>
      <point x="1058" y="894"/>
      <point x="882" y="778"/>
      <point x="648" y="778" type="curve" smooth="yes"/>
    </contour>
  </outline>
</glyph>
<glyph name="J" format="2">
  <advance width="945"/>
  <unicode hex="004A"/>
  <anchor x="884" y="1400" name="top"/>
  <outline>
    <contour>
      <point x="262" y="-30" type="curve" smooth="yes"/>
      <point x="510" y="-30"/>
      <point x="668" y="110"/>
      <point x="722" y="362" type="curve" smooth="yes"/>
      <point x="942" y="1400" type="line"/>
      <point x="826" y="1400" type="line"/>
      <point x="606" y="366" type="line" smooth="yes"/>
      <point x="560" y="154"/>
      <point x="450" y="78"/>
      <point x="262" y="78" type="curve" smooth="yes"/>
      <point x="164" y="78"/>
      <point x="80" y="102"/>
      <point x="8" y="148" type="curve"/>
      <point x="-13" y="40" type="line"/>
      <point x="73" y="-9"/>
      <point x="164" y="-30"/>
    </contour>
  </outline>
</glyph>
<glyph name="backslash" format="2">
  <advance width="906"/>
  <unicode hex="005C"/>
  <outline>
    <contour>
      <point x="632" y="-220" type="line"/>
      <point x="744" y="-220" type="line"/>
      <point x="368" y="1600" type="line"/>
      <point x="256" y="1600" type="line"/>
    </contour>
  </outline>
</glyph>
<glyph name="p" format="2">
  <advance width="1260"/>
  <unicode hex="0070"/>
  <outline>
    <contour>
      <point x="-21" y="-420" type="line"/>
      <point x="91" y="-420" type="line"/>
      <point x="221" y="188" type="line"/>
      <point x="291" y="62"/>
      <point x="431" y="-30"/>
      <point x="639" y="-30" type="curve" smooth="yes"/>
      <point x="943" y="-30"/>
      <point x="1181" y="242"/>
      <point x="1181" y="544" type="curve" smooth="yes"/>
      <point x="1181" y="794"/>
      <point x="1011" y="990"/>
      <point x="731" y="990" type="curve" smooth="yes"/>
      <point x="553" y="990"/>
      <point x="443" y="916"/>
      <point x="355" y="818" type="curve"/>
      <point x="393" y="1000" type="line"/>
      <point x="251" y="858" type="line"/>
    </contour>
    <contour>
      <point x="631" y="78" type="curve" smooth="yes"/>
      <point x="417" y="78"/>
      <point x="275" y="210"/>
      <point x="275" y="416" type="curve" smooth="yes"/>
      <point x="275" y="666"/>
      <point x="447" y="882"/>
      <point x="707" y="882" type="curve" smooth="yes"/>
      <point x="921" y="882"/>
      <point x="1061" y="750"/>
      <point x="1061" y="544" type="curve" smooth="yes"/>
      <point x="1061" y="296"/>
      <point x="891" y="78"/>
    </contour>
  </outline>
</glyph>
<glyph name="cent" format="2">
  <advance width="1296"/>
  <unicode hex="00A2"/>
  <outline>
    <contour>
      <point x="532" y="-160" type="line"/>
      <point x="632" y="-160" type="line"/>
      <point x="666" y="0" type="line"/>
      <point x="760" y="-2"/>
      <point x="848" y="20"/>
      <point x="932" y="64" type="curve"/>
      <point x="956" y="178" type="line"/>
      <point x="896" y="130"/>
      <point x="792" y="96"/>
      <point x="686" y="98" type="curve"/>
      <point x="846" y="852" type="line"/>
      <point x="924" y="842"/>
      <point x="986" y="816"/>
      <point x="1036" y="776" type="curve"/>
      <point x="1058" y="878" type="line"/>
      <point x="1002" y="918"/>
      <point x="942" y="938"/>
      <point x="868" y="948" type="curve"/>
      <point x="904" y="1120" type="line"/>
      <point x="804" y="1120" type="line"/>
      <point x="768" y="952" type="line"/>
      <point x="466" y="940"/>
      <point x="236" y="708"/>
      <point x="236" y="416" type="curve" smooth="yes"/>
      <point x="236" y="206"/>
      <point x="370" y="54"/>
      <point x="568" y="12" type="curve"/>
    </contour>
    <contour>
      <point x="588" y="108" type="line"/>
      <point x="430" y="144"/>
      <point x="342" y="250"/>
      <point x="342" y="418" type="curve" smooth="yes"/>
      <point x="342" y="666"/>
      <point x="494" y="852"/>
      <point x="748" y="858" type="curve"/>
    </contour>
  </outline>
</glyph>
<glyph name="currency" format="2">
  <advance width="1296"/>
  <unicode hex="00A4"/>
  <outline>
    <contour>
      <point x="240" y="156" type="line"/>
      <point x="408" y="308" type="line"/>
      <point x="472" y="252"/>
      <point x="548" y="226"/>
      <point x="636" y="226" type="curve" smooth="yes"/>
      <point x="718" y="226"/>
      <point x="804" y="252"/>
      <point x="882" y="310" type="curve"/>
      <point x="1020" y="156" type="line"/>
      <point x="1102" y="230" type="line"/>
      <point x="966" y="382" type="line"/>
      <point x="1038" y="456"/>
      <point x="1080" y="556"/>
      <point x="1080" y="658" type="curve" smooth="yes"/>
      <point x="1080" y="730"/>
      <point x="1062" y="798"/>
      <point x="1020" y="858" type="curve"/>
      <point x="1188" y="1008" type="line"/>
      <point x="1118" y="1086" type="line"/>
      <point x="952" y="936" type="line"/>
      <point x="890" y="990"/>
      <point x="810" y="1016"/>
      <point x="724" y="1016" type="curve" smooth="yes"/>
      <point x="642" y="1016"/>
      <point x="554" y="990"/>
      <point x="474" y="932" type="curve"/>
      <point x="338" y="1086" type="line"/>
      <point x="256" y="1012" type="line"/>
      <point x="392" y="860" type="line"/>
      <point x="324" y="786"/>
      <point x="282" y="690"/>
      <point x="282" y="578" type="curve" smooth="yes"/>
      <point x="282" y="510"/>
      <point x="298" y="442"/>
      <point x="340" y="384" type="curve"/>
      <point x="170" y="232" type="line"/>
    </contour>
    <contour>
      <point x="654" y="326" type="curve" smooth="yes"/>
      <point x="490" y="326"/>
      <point x="380" y="436"/>
      <point x="380" y="588" type="curve" smooth="yes"/>
      <point x="380" y="762"/>
      <point x="524" y="916"/>
      <point x="710" y="916" type="curve" smooth="yes"/>
      <point x="870" y="916"/>
      <point x="980" y="808"/>
      <point x="980" y="654" type="curve" smooth="yes"/>
      <point x="980" y="468"/>
      <point x="832" y="326"/>
    </contour>
  </outline>
</glyph>
<glyph name="logicalnot" format="2">
  <advance width="1296"/>
  <unicode hex="00AC"/>
  <outline>
    <contour>
      <point x="1011" y="458" type="line"/>
      <point x="1111" y="458" type="line"/>
      <point x="1199" y="870" type="line"/>
      <point x="263" y="870" type="line"/>
      <point x="243" y="774" type="line"/>
      <point x="1079" y="774" type="line"/>
    </contour>
  </outline>
</glyph>
<glyph name="degree" format="2">
  <advance width="936"/>
  <unicode hex="00B0"/>
  <outline>
    <contour>
      <point x="556" y="710" type="curve" smooth="yes"/>
      <point x="764" y="710"/>
      <point x="960" y="884"/>
      <point x="960" y="1098" type="curve" smooth="yes"/>
      <point x="960" y="1276"/>
      <point x="824" y="1420"/>
      <point x="632" y="1420" type="curve" smooth="yes"/>
      <point x="422" y="1420"/>
      <point x="226" y="1246"/>
      <point x="226" y="1032" type="curve" smooth="yes"/>
      <point x="226" y="854"/>
      <point x="364" y="710"/>
    </contour>
    <contour>
      <point x="570" y="806" type="curve" smooth="yes"/>
      <point x="420" y="806"/>
      <point x="326" y="898"/>
      <point x="326" y="1034" type="curve" smooth="yes"/>
      <point x="326" y="1202"/>
      <point x="454" y="1324"/>
      <point x="618" y="1324" type="curve" smooth="yes"/>
      <point x="768" y="1324"/>
      <point x="860" y="1236"/>
      <point x="860" y="1102" type="curve" smooth="yes"/>
      <point x="860" y="940"/>
      <point x="744" y="806"/>
    </contour>
  </outline>
</glyph>
<glyph name="threesuperior" format="2">
  <advance width="816"/>
  <unicode hex="00B3"/>
  <outline>
    <contour>
      <point x="456" y="702" type="curve" smooth="yes"/>
      <point x="652" y="702"/>
      <point x="814" y="830"/>
      <point x="814" y="1016" type="curve" smooth="yes"/>
      <point x="814" y="1166"/>
      <point x="680" y="1246"/>
      <point x="516" y="1254" type="curve"/>
      <point x="890" y="1548" type="line"/>
      <point x="906" y="1632" type="line"/>
      <point x="340" y="1632" type="line"/>
      <point x="300" y="1540" type="line"/>
      <point x="746" y="1540" type="line"/>
      <point x="364" y="1238" type="line"/>
      <point x="382" y="1174" type="line"/>
      <point x="406" y="1178"/>
      <point x="434" y="1180"/>
      <point x="462" y="1180" type="curve" smooth="yes"/>
      <point x="614" y="1180"/>
      <point x="708" y="1116"/>
      <point x="708" y="1012" type="curve" smooth="yes"/>
      <point x="708" y="882"/>
      <point x="604" y="798"/>
      <point x="460" y="798" type="curve" smooth="yes"/>
      <point x="360" y="798"/>
      <point x="260" y="832"/>
      <point x="194" y="888" type="curve"/>
      <point x="172" y="786" type="line"/>
      <point x="238" y="737"/>
      <point x="348" y="702"/>
    </contour>
  </outline>
</glyph>
<glyph name="micro" format="2">
  <advance width="1176"/>
  <unicode hex="00B5"/>
  <outline>
    <contour>
      <point x="-20" y="-420" type="line"/>
      <point x="102" y="-420" type="line"/>
      <point x="194" y="112" type="line"/>
      <point x="254" y="10"/>
      <point x="362" y="-30"/>
      <point x="494" y="-30" type="curve" smooth="yes"/>
      <point x="602" y="-30"/>
      <point x="714" y="6"/>
      <point x="814" y="100" type="curve"/>
      <point x="792" y="0" type="line"/>
      <point x="904" y="0" type="line"/>
      <point x="1116" y="1000" type="line"/>
      <point x="974" y="858" type="line"/>
      <point x="864" y="372" type="line" smooth="yes"/>
      <point x="824" y="196"/>
      <point x="688" y="78"/>
      <point x="526" y="78" type="curve" smooth="yes"/>
      <point x="342" y="78"/>
      <point x="230" y="234"/>
      <point x="266" y="404" type="curve" smooth="yes"/>
      <point x="392" y="1000" type="line"/>
      <point x="250" y="858" type="line"/>
    </contour>
  </outline>
</glyph>
<glyph name="germandbls" format="2">
  <advance width="1191"/>
  <unicode hex="00DF"/>
  <outline>
    <contour>
      <point x="664" y="-30" type="curve" smooth="yes"/>
      <point x="898" y="-30"/>
      <point x="1064" y="96"/>
      <point x="1064" y="296" type="curve" smooth="yes"/>
      <point x="1064" y="428"/>
      <point x="978" y="500"/>
      <point x="886" y="564" type="curve" smooth="yes"/>
      <point x="822" y="608"/>
      <point x="750" y="654"/>
      <point x="750" y="730" type="curve" smooth="yes"/>
      <point x="750" y="802"/>
      <point x="820" y="850"/>
      <point x="886" y="906" type="curve" smooth="yes"/>
      <point x="978" y="984"/>
      <point x="1088" y="1046"/>
      <point x="1088" y="1196" type="curve" smooth="yes"/>
      <point x="1088" y="1358"/>
      <point x="944" y="1470"/>
      <point x="716" y="1470" type="curve" smooth="yes"/>
      <point x="488" y="1470"/>
      <point x="350" y="1320"/>
      <point x="302" y="1092" type="curve" smooth="yes"/>
      <point x="68" y="0" type="line"/>
      <point x="180" y="0" type="line"/>
      <point x="406" y="1060" type="line" smooth="yes"/>
      <point x="446" y="1254"/>
      <point x="530" y="1362"/>
      <point x="704" y="1362" type="curve" smooth="yes"/>
      <point x="860" y="1362"/>
      <point x="966" y="1298"/>
      <point x="966" y="1188" type="curve" smooth="yes"/>
      <point x="966" y="1086"/>
      <point x="886" y="1040"/>
      <point x="800" y="966" type="curve" smooth="yes"/>
      <point x="730" y="906"/>
      <point x="624" y="838"/>
      <point x="624" y="718" type="curve" smooth="yes"/>
      <point x="624" y="604"/>
      <point x="724" y="530"/>
      <point x="800" y="474" type="curve" smooth="yes"/>
      <point x="874" y="420"/>
      <point x="940" y="368"/>
      <point x="940" y="276" type="curve" smooth="yes"/>
      <point x="940" y="146"/>
      <point x="838" y="74"/>
      <point x="684" y="74" type="curve" smooth="yes"/>
      <point x="596" y="74"/>
      <point x="518" y="96"/>
      <point x="428" y="130" type="curve"/>
      <point x="406" y="20" type="line"/>
      <point x="490" y="-16"/>
      <point x="606" y="-30"/>
    </contour>
  </outline>
</glyph>
<glyph name="ae" format="2">
  <advance width="1762"/>
  <unicode hex="00E6"/>
  <anchor x="935" y="960" name="top"/>
  <outline>
    <contour>
      <point x="361" y="-30" type="curve" smooth="yes"/>
      <point x="557" y="-30"/>
      <point x="737" y="86"/>
      <point x="821" y="256" type="curve"/>
      <point x="793" y="258" type="line"/>
      <point x="855" y="78"/>
      <point x="1021" y="-30"/>
      <point x="1225" y="-30" type="curve" smooth="yes"/>
      <point x="1329" y="-30"/>
      <point x="1435" y="-8"/>
      <point x="1527" y="36" type="curve"/>
      <point x="1555" y="166" type="line"/>
      <point x="1465" y="110"/>
      <point x="1351" y="78"/>
      <point x="1243" y="78" type="curve" smooth="yes"/>
      <point x="1001" y="78"/>
      <point x="861" y="234"/>
      <point x="897" y="468" type="curve"/>
      <point x="1679" y="468" type="line"/>
      <point x="1743" y="772"/>
      <point x="1587" y="990"/>
      <point x="1303" y="990" type="curve" smooth="yes"/>
      <point x="1139" y="990"/>
      <point x="1003" y="920"/>
      <point x="897" y="784" type="curve"/>
      <point x="929" y="782" type="line"/>
      <point x="899" y="924"/>
      <point x="775" y="1000"/>
      <point x="577" y="1000" type="curve" smooth="yes"/>
      <point x="473" y="1000"/>
      <point x="367" y="970"/>
      <point x="281" y="918" type="curve"/>
      <point x="263" y="792" type="line"/>
      <point x="353" y="854"/>
      <point x="469" y="892"/>
      <point x="565" y="892" type="curve" smooth="yes"/>
      <point x="757" y="892"/>
      <point x="847" y="784"/>
      <point x="809" y="604" type="curve" smooth="yes"/>
      <point x="759" y="370" type="line" smooth="yes"/>
      <point x="721" y="198"/>
      <point x="565" y="78"/>
      <point x="379" y="78" type="curve" smooth="yes"/>
      <point x="249" y="78"/>
      <point x="165" y="144"/>
      <point x="165" y="246" type="curve" smooth="yes"/>
      <point x="165" y="436"/>
      <point x="399" y="510"/>
      <point x="819" y="460" type="curve"/>
      <point x="835" y="554" type="line"/>
      <point x="345" y="620"/>
      <point x="51" y="498"/>
      <point x="51" y="228" type="curve" smooth="yes"/>
      <point x="51" y="72"/>
      <point x="175" y="-30"/>
    </contour>
    <contour>
      <point x="919" y="572" type="line"/>
      <point x="959" y="760"/>
      <point x="1091" y="882"/>
      <point x="1285" y="882" type="curve" smooth="yes"/>
      <point x="1491" y="882"/>
      <point x="1583" y="770"/>
      <point x="1575" y="572" type="curve"/>
    </contour>
  </outline>
</glyph>
<glyph name="OE" format="2">
  <advance width="2434"/>
  <unicode hex="0152"/>
  <outline>
    <contour>
      <point x="810" y="-30" type="curve" smooth="yes"/>
      <point x="1056" y="-30"/>
      <point x="1278" y="74"/>
      <point x="1424" y="260" type="curve"/>
      <point x="1412" y="284" type="line"/>
      <point x="1352" y="0" type="line"/>
      <point x="2170" y="0" type="line"/>
      <point x="2216" y="108" type="line"/>
      <point x="1490" y="108" type="line"/>
      <point x="1614" y="688" type="line"/>
      <point x="2242" y="688" type="line"/>
      <point x="2264" y="796" type="line"/>
      <point x="1636" y="796" type="line"/>
      <point x="1742" y="1292" type="line"/>
      <point x="2450" y="1292" type="line"/>
      <point x="2472" y="1400" type="line"/>
      <point x="1648" y="1400" type="line"/>
      <point x="1562" y="990" type="line"/>
      <point x="1584" y="1006" type="line"/>
      <point x="1492" y="1284"/>
      <point x="1236" y="1430"/>
      <point x="960" y="1430" type="curve" smooth="yes"/>
      <point x="520" y="1430"/>
      <point x="158" y="1054"/>
      <point x="158" y="610" type="curve" smooth="yes"/>
      <point x="158" y="246"/>
      <point x="424" y="-30"/>
    </contour>
    <contour>
      <point x="830" y="82" type="curve" smooth="yes"/>
      <point x="512" y="82"/>
      <point x="278" y="294"/>
      <point x="278" y="618" type="curve" smooth="yes"/>
      <point x="278" y="996"/>
      <point x="568" y="1318"/>
      <point x="958" y="1318" type="curve" smooth="yes"/>
      <point x="1284" y="1318"/>
      <point x="1508" y="1100"/>
      <point x="1508" y="780" type="curve" smooth="yes"/>
      <point x="1508" y="390"/>
      <point x="1212" y="82"/>
    </contour>
  </outline>
</glyph>
<glyph name="circumflexcomb" format="2">
  <unicode hex="0302"/>
  <anchor x="429" y="960" name="_top"/>
  <anchor x="531" y="1444" name="top"/>
  <anchor x="823" y="1224" name="top_right"/>
  <outline>
    <contour>
      <point x="157" y="1170" type="line"/>
      <point x="289" y="1170" type="line"/>
      <point x="541" y="1426" type="line"/>
      <point x="669" y="1170" type="line"/>
      <point x="781" y="1170" type="line"/>
      <point x="615" y="1504" type="line"/>
      <point x="487" y="1504" type="line"/>
    </contour>
  </outline>
</glyph>
<glyph name="tildecomb" format="2">
  <unicode hex="0303"/>
  <anchor x="431" y="960" name="_top"/>
  <anchor x="513" y="1344" name="top"/>
  <outline>
    <contour>
      <point x="173" y="1246" type="line"/>
      <point x="223" y="1302"/>
      <point x="281" y="1330"/>
      <point x="354" y="1330" type="curve" smooth="yes"/>
      <point x="445" y="1330"/>
      <point x="540" y="1246"/>
      <point x="656" y="1246" type="curve" smooth="yes"/>
      <point x="719" y="1246"/>
      <point x="776" y="1270"/>
      <point x="825" y="1314" type="curve"/>
      <point x="849" y="1430" type="line"/>
      <point x="799" y="1374"/>
      <point x="741" y="1346"/>
      <point x="668" y="1346" type="curve" smooth="yes"/>
      <point x="577" y="1346"/>
      <point x="482" y="1430"/>
      <point x="366" y="1430" type="curve" smooth="yes"/>
      <point x="303" y="1430"/>
      <point x="246" y="1406"/>
      <point x="197" y="1362" type="curve"/>
    </contour>
  </outline>
</glyph>
<glyph name="ringcomb" format="2">
  <unicode hex="030A"/>
  <anchor x="362" y="960" name="_top"/>
  <anchor x="470" y="1464" name="top"/>
  <outline>
    <contour>
      <point x="418" y="1100" type="curve" smooth="yes"/>
      <point x="560" y="1100"/>
      <point x="690" y="1208"/>
      <point x="690" y="1352" type="curve" smooth="yes"/>
      <point x="690" y="1472"/>
      <point x="594" y="1566"/>
      <point x="466" y="1566" type="curve" smooth="yes"/>
      <point x="324" y="1566"/>
      <point x="192" y="1452"/>
      <point x="192" y="1310" type="curve" smooth="yes"/>
      <point x="192" y="1190"/>
      <point x="286" y="1100"/>
    </contour>
    <contour>
      <point x="426" y="1188" type="curve" smooth="yes"/>
      <point x="344" y="1188"/>
      <point x="296" y="1244"/>
      <point x="296" y="1316" type="curve" smooth="yes"/>
      <point x="296" y="1400"/>
      <point x="364" y="1474"/>
      <point x="452" y="1474" type="curve" smooth="yes"/>
      <point x="536" y="1474"/>
      <point x="586" y="1422"/>
      <point x="586" y="1348" type="curve" smooth="yes"/>
      <point x="586" y="1262"/>
      <point x="516" y="1188"/>
    </contour>
  </outline>
</glyph>
<glyph name="commaaccentcomb" format="2">
  <unicode hex="0326"/>
  <anchor x="59" y="0" name="_bottom"/>
  <outline>
    <contour>
      <point x="-228" y="-646" type="line"/>
      <point x="-64" y="-641"/>
      <point x="75" y="-531"/>
      <point x="75" y="-392" type="curve" smooth="yes"/>
      <point x="75" y="-326"/>
      <point x="33" y="-284"/>
      <point x="-31" y="-284" type="curve" smooth="yes"/>
      <point x="-87" y="-284"/>
      <point x="-132" y="-321"/>
      <point x="-132" y="-375" type="curve" smooth="yes"/>
      <point x="-132" y="-428"/>
      <point x="-74" y="-463"/>
      <point x="-24" y="-454" type="curve"/>
      <point x="-40" y="-517"/>
      <point x="-117" y="-571"/>
      <point x="-214" y="-574" type="curve"/>
    </contour>
  </outline>
</glyph>
<glyph name="cedillacomb" format="2">
  <unicode hex="0327"/>
  <anchor x="108" y="0" name="_bottom"/>
  <outline>
    <contour>
      <point x="24" y="-448" type="curve" smooth="yes"/>
      <point x="160" y="-448"/>
      <point x="272" y="-378"/>
      <point x="272" y="-254" type="curve" smooth="yes"/>
      <point x="272" y="-164"/>
      <point x="192" y="-110"/>
      <point x="80" y="-96" type="curve"/>
      <point x="154" y="40" type="line"/>
      <point x="72" y="40" type="line"/>
      <point x="-18" y="-126" type="line"/>
      <point x="4" y="-184" type="line"/>
      <point x="82" y="-180"/>
      <point x="162" y="-206"/>
      <point x="162" y="-264" type="curve" smooth="yes"/>
      <point x="162" y="-338"/>
      <point x="96" y="-360"/>
      <point x="24" y="-360" type="curve" smooth="yes"/>
      <point x="-58" y="-360"/>
      <point x="-130" y="-332"/>
      <point x="-156" y="-302" type="curve"/>
      <point x="-174" y="-392" type="line"/>
      <point x="-116" y="-428"/>
      <point x="-68" y="-448"/>
    </contour>
  </outline>
</glyph>
<glyph name="alpha" format="2">
  <advance width="1312"/>
  <unicode hex="03B1"/>
  <anchor x="780" y="960" name="top"/>
  <outline>
    <contour>
      <point x="492" y="-30" type="curve" smooth="yes"/>
      <point x="648" y="-30"/>
      <point x="780" y="42"/>
      <point x="868" y="178" type="curve"/>
      <point x="848" y="-10"/>
      <point x="966" y="-72"/>
      <point x="1140" y="-8" type="curve"/>
      <point x="1158" y="94" type="line"/>
      <point x="900" y="30"/>
      <point x="942" y="238"/>
      <point x="1056" y="520" type="curve" smooth="yes"/>
      <point x="1236" y="960" type="line"/>
      <point x="1128" y="960" type="line"/>
      <point x="1014" y="684" type="line"/>
      <point x="996" y="850"/>
      <point x="872" y="990"/>
      <point x="632" y="990" type="curve" smooth="yes"/>
      <point x="302" y="990"/>
      <point x="78" y="698"/>
      <point x="78" y="408" type="curve" smooth="yes"/>
      <point x="78" y="156"/>
      <point x="226" y="-30"/>
    </contour>
    <contour>
      <point x="504" y="78" type="curve" smooth="yes"/>
      <point x="300" y="78"/>
      <point x="198" y="204"/>
      <point x="198" y="408" type="curve" smooth="yes"/>
      <point x="198" y="646"/>
      <point x="364" y="882"/>
      <point x="622" y="882" type="curve" smooth="yes"/>
      <point x="930" y="882"/>
      <point x="924" y="572"/>
      <point x="934" y="488" type="curve"/>
      <point x="844" y="264"/>
      <point x="716" y="78"/>
    </contour>
  </outline>
</glyph>
<glyph name="gamma" format="2">
  <advance width="1028"/>
  <unicode hex="03B3"/>
  <outline>
    <contour>
      <point x="254" y="-420" type="line"/>
      <point x="366" y="-420" type="line"/>
      <point x="458" y="12" type="line"/>
      <point x="734" y="272"/>
      <point x="909" y="576"/>
      <point x="1053" y="960" type="curve"/>
      <point x="927" y="960" type="line"/>
      <point x="797" y="592"/>
      <point x="620" y="316"/>
      <point x="406" y="104" type="curve"/>
      <point x="436" y="104" type="line"/>
      <point x="266" y="960" type="line"/>
      <point x="144" y="960" type="line"/>
      <point x="342" y="-6" type="line"/>
    </contour>
  </outline>
</glyph>
<glyph name="theta" format="2">
  <advance width="1182"/>
  <unicode hex="03B8"/>
  <outline>
    <contour>
      <point x="504" y="-30" type="curve" smooth="yes"/>
      <point x="962" y="-30"/>
      <point x="1144" y="546"/>
      <point x="1144" y="1010" type="curve" smooth="yes"/>
      <point x="1144" y="1318"/>
      <point x="1006" y="1470"/>
      <point x="776" y="1470" type="curve" smooth="yes"/>
      <point x="324" y="1470"/>
      <point x="140" y="902"/>
      <point x="140" y="430" type="curve" smooth="yes"/>
      <point x="140" y="122"/>
      <point x="280" y="-30"/>
    </contour>
    <contour>
      <point x="518" y="78" type="curve" smooth="yes"/>
      <point x="262" y="78"/>
      <point x="222" y="348"/>
      <point x="284" y="668" type="curve"/>
      <point x="982" y="668" type="line"/>
      <point x="902" y="266"/>
      <point x="740" y="78"/>
    </contour>
    <contour>
      <point x="302" y="772" type="line"/>
      <point x="382" y="1174"/>
      <point x="546" y="1362"/>
      <point x="768" y="1362" type="curve" smooth="yes"/>
      <point x="1024" y="1362"/>
      <point x="1062" y="1090"/>
      <point x="1000" y="772" type="curve"/>
    </contour>
  </outline>
</glyph>
<glyph name="mu" format="2">
  <advance width="1161"/>
  <unicode hex="03BC"/>
  <outline>
    <contour>
      <point x="-21" y="-420" type="line"/>
      <point x="91" y="-420" type="line"/>
      <point x="201" y="98" type="line"/>
      <point x="241" y="4"/>
      <point x="343" y="-30"/>
      <point x="463" y="-30" type="curve" smooth="yes"/>
      <point x="583" y="-30"/>
      <point x="693" y="8"/>
      <point x="805" y="136" type="curve"/>
      <point x="777" y="0" type="line"/>
      <point x="889" y="0" type="line"/>
      <point x="1101" y="1000" type="line"/>
      <point x="961" y="860" type="line"/>
      <point x="861" y="390" type="line" smooth="yes"/>
      <point x="817" y="186"/>
      <point x="645" y="76"/>
      <point x="491" y="76" type="curve" smooth="yes"/>
      <point x="323" y="76"/>
      <point x="219" y="176"/>
      <point x="259" y="370" type="curve" smooth="yes"/>
      <point x="391" y="1000" type="line"/>
      <point x="251" y="860" type="line"/>
    </contour>
  </outline>
</glyph>
<glyph name="tau" format="2">
  <advance width="812"/>
  <unicode hex="03C4"/>
  <outline>
    <contour>
      <point x="412" y="-28" type="curve" smooth="yes"/>
      <point x="470" y="-28"/>
      <point x="504" y="-24"/>
      <point x="558" y="-8" type="curve"/>
      <point x="580" y="106" type="line"/>
      <point x="534" y="90"/>
      <point x="490" y="80"/>
      <point x="442" y="80" type="curve" smooth="yes"/>
      <point x="360" y="80"/>
      <point x="336" y="124"/>
      <point x="368" y="272" type="curve" smooth="yes"/>
      <point x="492" y="852" type="line"/>
      <point x="828" y="852" type="line"/>
      <point x="852" y="960" type="line"/>
      <point x="138" y="960" type="line"/>
      <point x="90" y="852" type="line"/>
      <point x="380" y="852" type="line"/>
      <point x="244" y="218" type="line" smooth="yes"/>
      <point x="204" y="34"/>
      <point x="290" y="-28"/>
    </contour>
  </outline>
</glyph>
<glyph name="upsilon" format="2">
  <advance width="1057"/>
  <unicode hex="03C5"/>
  <anchor x="605" y="960" name="top"/>
  <outline>
    <contour>
      <point x="431" y="-30" type="curve" smooth="yes"/>
      <point x="753" y="-30"/>
      <point x="949" y="241"/>
      <point x="949" y="616" type="curve" smooth="yes"/>
      <point x="949" y="730"/>
      <point x="930" y="845"/>
      <point x="892" y="960" type="curve"/>
      <point x="761" y="960" type="line"/>
      <point x="806" y="852"/>
      <point x="830" y="739"/>
      <point x="830" y="621" type="curve" smooth="yes"/>
      <point x="830" y="318"/>
      <point x="702" y="80"/>
      <point x="439" y="80" type="curve" smooth="yes"/>
      <point x="277" y="80"/>
      <point x="197" y="170"/>
      <point x="247" y="402" type="curve" smooth="yes"/>
      <point x="375" y="1000" type="line"/>
      <point x="231" y="860" type="line"/>
      <point x="127" y="374" type="line" smooth="yes"/>
      <point x="73" y="122"/>
      <point x="207" y="-30"/>
    </contour>
  </outline>
</glyph>
<glyph name="psi" format="2">
  <advance width="1355"/>
  <unicode hex="03C8"/>
  <outline>
    <contour>
      <point x="432" y="-420" type="line"/>
      <point x="544" y="-420" type="line"/>
      <point x="632" y="0" type="line"/>
      <point x="1018" y="0"/>
      <point x="1253" y="263"/>
      <point x="1253" y="626" type="curve" smooth="yes"/>
      <point x="1253" y="737"/>
      <point x="1234" y="848"/>
      <point x="1197" y="960" type="curve"/>
      <point x="1065" y="960" type="line"/>
      <point x="1110" y="855"/>
      <point x="1134" y="746"/>
      <point x="1134" y="631" type="curve" smooth="yes"/>
      <point x="1134" y="338"/>
      <point x="978" y="108"/>
      <point x="656" y="108" type="curve"/>
      <point x="904" y="1280" type="line"/>
      <point x="792" y="1280" type="line"/>
      <point x="544" y="108" type="line"/>
      <point x="272" y="120"/>
      <point x="214" y="254"/>
      <point x="274" y="536" type="curve" smooth="yes"/>
      <point x="374" y="1000" type="line"/>
      <point x="232" y="860" type="line"/>
      <point x="162" y="536" type="line" smooth="yes"/>
      <point x="90" y="198"/>
      <point x="190" y="12"/>
      <point x="520" y="0" type="curve"/>
    </contour>
  </outline>
</glyph>
<glyph name="kaiSymbol" format="2">
  <advance width="1057"/>
  <unicode hex="03D7"/>
  <outline>
    <contour>
      <point x="416" y="-240" type="line"/>
      <point x="566" y="-266"/>
      <point x="676" y="-156"/>
      <point x="864" y="0" type="curve"/>
      <point x="578" y="597" type="line"/>
      <point x="659" y="664" type="line" smooth="yes"/>
      <point x="833" y="808"/>
      <point x="921" y="888"/>
      <point x="1019" y="866" type="curve"/>
      <point x="1037" y="972" type="line"/>
      <point x="907" y="996"/>
      <point x="789" y="898"/>
      <point x="591" y="738" type="curve" smooth="yes"/>
      <point x="285" y="492" type="line"/>
      <point x="393" y="1000" type="line"/>
      <point x="251" y="860" type="line"/>
      <point x="69" y="0" type="line"/>
      <point x="181" y="0" type="line"/>
      <point x="253" y="340" type="line"/>
      <point x="486" y="525" type="line"/>
      <point x="724" y="14" type="line"/>
      <point x="610" y="-80"/>
      <point x="530" y="-150"/>
      <point x="436" y="-130" type="curve"/>
    </contour>
  </outline>
</glyph>
<glyph name="Dje-cy" format="2">
  <advance width="1575"/>
  <unicode hex="0402"/>
  <outline>
    <contour>
      <point x="384" y="0" type="line"/>
      <point x="500" y="0" type="line"/>
      <point x="774" y="1292" type="line"/>
      <point x="1466" y="1292" type="line"/>
      <point x="1488" y="1400" type="line"/>
      <point x="278" y="1400" type="line"/>
      <point x="232" y="1292" type="line"/>
      <point x="658" y="1292" type="line"/>
    </contour>
    <contour>
      <point x="920" y="-272" type="line"/>
      <point x="1236" y="-198"/>
      <point x="1462" y="82"/>
      <point x="1462" y="394" type="curve" smooth="yes"/>
      <point x="1462" y="702"/>
      <point x="1246" y="846"/>
      <point x="972" y="846" type="curve" smooth="yes"/>
      <point x="856" y="846"/>
      <point x="728" y="820"/>
      <point x="590" y="766" type="curve"/>
      <point x="568" y="660" type="line"/>
      <point x="698" y="712"/>
      <point x="820" y="736"/>
      <point x="940" y="736" type="curve" smooth="yes"/>
      <point x="1166" y="736"/>
      <point x="1346" y="636"/>
      <point x="1346" y="376" type="curve" smooth="yes"/>
      <point x="1346" y="124"/>
      <point x="1156" y="-112"/>
      <point x="888" y="-182" type="curve"/>
    </contour>
  </outline>
</glyph>
<glyph name="El-cy" format="2">
  <advance width="1478"/>
  <unicode hex="041B"/>
  <outline>
    <contour>
      <point x="-4" y="-20" type="line"/>
      <point x="194" y="-44"/>
      <point x="374" y="28"/>
      <point x="428" y="280" type="curve" smooth="yes"/>
      <point x="644" y="1292" type="line"/>
      <point x="1334" y="1292" type="line"/>
      <point x="1060" y="0" type="line"/>
      <point x="1176" y="0" type="line"/>
      <point x="1472" y="1400" type="line"/>
      <point x="550" y="1400" type="line"/>
      <point x="316" y="300" type="line" smooth="yes"/>
      <point x="278" y="120"/>
      <point x="166" y="74"/>
      <point x="20" y="88" type="curve"/>
    </contour>
  </outline>
</glyph>
<glyph name="U-cy" format="2">
  <advance width="1214"/>
  <unicode hex="0423"/>
  <anchor x="874" y="1400" name="top"/>
  <outline>
    <contour>
      <point x="36" y="0" type="line"/>
      <point x="290" y="-44"/>
      <point x="446" y="72"/>
      <point x="746" y="494" type="curve" smooth="yes"/>
      <point x="1390" y="1400" type="line"/>
      <point x="1244" y="1400" type="line"/>
      <point x="668" y="568" type="line" smooth="yes"/>
      <point x="410" y="200"/>
      <point x="244" y="74"/>
      <point x="58" y="108" type="curve"/>
    </contour>
    <contour>
      <point x="646" y="480" type="line"/>
      <point x="728" y="606" type="line"/>
      <point x="448" y="1400" type="line"/>
      <point x="304" y="1400" type="line"/>
    </contour>
  </outline>
</glyph>
<glyph name="ge-cy" format="2">
  <advance width="830"/>
  <unicode hex="0433"/>
  <anchor x="344" y="486" name="bar"/>
  <anchor x="180" y="0" name="descender"/>
  <anchor x="574" y="960" name="top"/>
  <outline>
    <contour>
      <point x="70" y="0" type="line"/>
      <point x="182" y="0" type="line"/>
      <point x="362" y="856" type="line"/>
      <point x="852" y="856" type="line"/>
      <point x="874" y="960" type="line"/>
      <point x="272" y="960" type="line"/>
    </contour>
  </outline>
</glyph>
<glyph name="ka-cy" format="2">
  <advance width="1026"/>
  <unicode hex="043A"/>
  <anchor x="784" y="0" name="descender"/>
  <anchor x="588" y="960" name="top"/>
  <outline>
    <contour>
      <point x="728" y="0" type="line"/>
      <point x="864" y="0" type="line"/>
      <point x="616" y="514" type="line"/>
      <point x="996" y="960" type="line"/>
      <point x="870" y="960" type="line"/>
      <point x="492" y="518" type="line"/>
    </contour>
    <contour>
      <point x="68" y="0" type="line"/>
      <point x="180" y="0" type="line"/>
      <point x="278" y="460" type="line"/>
      <point x="540" y="460" type="line"/>
      <point x="562" y="564" type="line"/>
      <point x="300" y="564" type="line"/>
      <point x="392" y="1000" type="line"/>
      <point x="250" y="858" type="line"/>
    </contour>
  </outline>
</glyph>
<glyph name="el-cy" format="2">
  <advance width="1164"/>
  <unicode hex="043B"/>
  <outline>
    <contour>
      <point x="-46" y="-20" type="line"/>
      <point x="126" y="-40"/>
      <point x="288" y="22"/>
      <point x="334" y="240" type="curve" smooth="yes"/>
      <point x="464" y="856" type="line"/>
      <point x="960" y="856" type="line"/>
      <point x="780" y="0" type="line"/>
      <point x="892" y="0" type="line"/>
      <point x="1096" y="960" type="line"/>
      <point x="373" y="960" type="line"/>
      <point x="226" y="260" type="line" smooth="yes"/>
      <point x="194" y="110"/>
      <point x="98" y="72"/>
      <point x="-24" y="84" type="curve"/>
    </contour>
  </outline>
</glyph>
<glyph name="te-cy" format="2">
  <advance width="932"/>
  <unicode hex="0442"/>
  <anchor x="468" y="486" name="bar"/>
  <anchor x="364" y="0" name="bottom"/>
  <anchor x="568" y="960" name="top"/>
  <outline>
    <contour>
      <point x="308" y="0" type="line"/>
      <point x="420" y="0" type="line"/>
      <point x="602" y="856" type="line"/>
      <point x="960" y="856" type="line"/>
      <point x="982" y="960" type="line"/>
      <point x="166" y="960" type="line"/>
      <point x="120" y="856" type="line"/>
      <point x="490" y="856" type="line"/>
    </contour>
  </outline>
</glyph>
<glyph name="hardsign-cy" format="2">
  <advance width="1212"/>
  <unicode hex="044A"/>
  <anchor x="530" y="960" name="top"/>
  <outline>
    <contour>
      <point x="270" y="0" type="line"/>
      <point x="690" y="0" type="line" smooth="yes"/>
      <point x="908" y="0"/>
      <point x="1082" y="126"/>
      <point x="1082" y="324" type="curve" smooth="yes"/>
      <point x="1082" y="514"/>
      <point x="958" y="616"/>
      <point x="744" y="616" type="curve" smooth="yes"/>
      <point x="486" y="616" type="line"/>
      <point x="462" y="512" type="line"/>
      <point x="732" y="512" type="line" smooth="yes"/>
      <point x="892" y="512"/>
      <point x="962" y="450"/>
      <point x="962" y="324" type="curve" smooth="yes"/>
      <point x="962" y="190"/>
      <point x="860" y="106"/>
      <point x="696" y="106" type="curve" smooth="yes"/>
      <point x="404" y="106" type="line"/>
      <point x="586" y="960" type="line"/>
      <point x="474" y="960" type="line"/>
    </contour>
    <contour>
      <point x="120" y="856" type="line"/>
      <point x="450" y="856" type="line"/>
      <point x="584" y="960" type="line"/>
      <point x="162" y="960" type="line"/>
    </contour>
  </outline>
</glyph>
<glyph name="softsign-cy" format="2">
  <advance width="1010"/>
  <unicode hex="044C"/>
  <outline>
    <contour>
      <point x="68" y="0" type="line"/>
      <point x="488" y="0" type="line" smooth="yes"/>
      <point x="706" y="0"/>
      <point x="880" y="126"/>
      <point x="880" y="324" type="curve" smooth="yes"/>
      <point x="880" y="514"/>
      <point x="756" y="616"/>
      <point x="542" y="616" type="curve" smooth="yes"/>
      <point x="284" y="616" type="line"/>
      <point x="260" y="512" type="line"/>
      <point x="530" y="512" type="line" smooth="yes"/>
      <point x="690" y="512"/>
      <point x="760" y="450"/>
      <point x="760" y="324" type="curve" smooth="yes"/>
      <point x="760" y="190"/>
      <point x="658" y="106"/>
      <point x="494" y="106" type="curve" smooth="yes"/>
      <point x="202" y="106" type="line"/>
      <point x="392" y="1000" type="line"/>
      <point x="250" y="858" type="line"/>
    </contour>
  </outline>
</glyph>
<glyph name="yat-cy" format="2">
  <advance width="1210"/>
  <unicode hex="0463"/>
  <outline>
    <contour>
      <point x="268" y="0" type="line"/>
      <point x="688" y="0" type="line" smooth="yes"/>
      <point x="906" y="0"/>
      <point x="1080" y="126"/>
      <point x="1080" y="324" type="curve" smooth="yes"/>
      <point x="1080" y="514"/>
      <point x="956" y="616"/>
      <point x="742" y="616" type="curve" smooth="yes"/>
      <point x="484" y="616" type="line"/>
      <point x="460" y="512" type="line"/>
      <point x="730" y="512" type="line" smooth="yes"/>
      <point x="890" y="512"/>
      <point x="960" y="450"/>
      <point x="960" y="324" type="curve" smooth="yes"/>
      <point x="960" y="190"/>
      <point x="858" y="106"/>
      <point x="694" y="106" type="curve" smooth="yes"/>
      <point x="402" y="106" type="line"/>
      <point x="694" y="1480" type="line"/>
      <point x="552" y="1338" type="line"/>
    </contour>
    <contour>
      <point x="120" y="856" type="line"/>
      <point x="880" y="856" type="line"/>
      <point x="902" y="960" type="line"/>
      <point x="166" y="960" type="line"/>
    </contour>
  </outline>
</glyph>
<glyph name="Obarred-cy" format="2">
  <advance width="1696"/>
  <unicode hex="04E8"/>
  <anchor x="783" y="0" name="bottom"/>
  <anchor x="1409" y="1400" name="horn"/>
  <anchor x="995" y="0" name="ogonek"/>
  <anchor x="1007" y="1400" name="top"/>
  <anchor x="347" y="1400" name="topleft"/>
  <outline>
    <contour>
      <point x="238" y="668" type="line"/>
      <point x="1536" y="668" type="line"/>
      <point x="1560" y="776" type="line"/>
      <point x="262" y="776" type="line"/>
    </contour>
    <component base="O"/>
  </outline>
</glyph>
<glyph name="euro" format="2">
  <advance width="1296"/>
  <unicode hex="20AC"/>
  <outline>
    <contour>
      <point x="784" y="-30" type="curve" smooth="yes"/>
      <point x="908" y="-30"/>
      <point x="1020" y="0"/>
      <point x="1130" y="70" type="curve"/>
      <point x="1156" y="194" type="line"/>
      <point x="1048" y="114"/>
      <point x="930" y="82"/>
      <point x="812" y="82" type="curve" smooth="yes"/>
      <point x="554" y="82"/>
      <point x="390" y="234"/>
      <point x="372" y="496" type="curve"/>
      <point x="884" y="496" type="line"/>
      <point x="906" y="596" type="line"/>
      <point x="370" y="596" type="line"/>
      <point x="376" y="672"/>
      <point x="380" y="728"/>
      <point x="400" y="804" type="curve"/>
      <point x="950" y="804" type="line"/>
      <point x="972" y="904" type="line"/>
      <point x="432" y="904" type="line"/>
      <point x="530" y="1164"/>
      <point x="716" y="1320"/>
      <point x="946" y="1320" type="curve" smooth="yes"/>
      <point x="1100" y="1320"/>
      <point x="1210" y="1264"/>
      <point x="1284" y="1168" type="curve"/>
      <point x="1310" y="1290" type="line"/>
      <point x="1230" y="1380"/>
      <point x="1112" y="1430"/>
      <point x="960" y="1430" type="curve" smooth="yes"/>
      <point x="688" y="1430"/>
      <point x="454" y="1216"/>
      <point x="334" y="904" type="curve"/>
      <point x="152" y="904" type="line"/>
      <point x="130" y="804" type="line"/>
      <point x="302" y="804" type="line"/>
      <point x="284" y="738"/>
      <point x="274" y="672"/>
      <point x="270" y="596" type="curve"/>
      <point x="86" y="596" type="line"/>
      <point x="64" y="496" type="line"/>
      <point x="268" y="496" type="line"/>
      <point x="274" y="180"/>
      <point x="472" y="-30"/>
    </contour>
  </outline>
</glyph>
<glyph name="notequal" format="2">
  <advance width="1296"/>
  <unicode hex="2260"/>
  <outline>
    <contour>
      <point x="398" y="179" type="line"/>
      <point x="1099" y="1153" type="line"/>
      <point x="986" y="1153" type="line"/>
      <point x="285" y="179" type="line"/>
    </contour>
    <contour>
      <point x="246" y="780" type="line"/>
      <point x="1182" y="780" type="line"/>
      <point x="1202" y="876" type="line"/>
      <point x="266" y="876" type="line"/>
    </contour>
    <contour>
      <point x="174" y="452" type="line"/>
      <point x="1110" y="452" type="line"/>
      <point x="1130" y="548" type="line"/>
      <point x="194" y="548" type="line"/>
    </contour>
  </outline>
</glyph>
<glyph name="_part.cedi" format="2">
  <advance width="1296"/>
  <anchor x="656" y="0" name="bottom"/>
  <anchor x="880" y="1400" name="top"/>
  <outline>
    <contour>
      <point x="730" y="-30" type="curve" smooth="yes"/>
      <point x="864" y="-30"/>
      <point x="988" y="0"/>
      <point x="1104" y="68" type="curve"/>
      <point x="1132" y="196" type="line"/>
      <point x="1016" y="112"/>
      <point x="894" y="78"/>
      <point x="762" y="78" type="curve" smooth="yes"/>
      <point x="448" y="78"/>
      <point x="262" y="260"/>
      <point x="262" y="582" type="curve" smooth="yes"/>
      <point x="262" y="976"/>
      <point x="496" y="1324"/>
      <point x="882" y="1324" type="curve" smooth="yes"/>
      <point x="1044" y="1324"/>
      <point x="1170" y="1276"/>
      <point x="1254" y="1178" type="curve"/>
      <point x="1280" y="1302" type="line"/>
      <point x="1192" y="1380"/>
      <point x="1058" y="1430"/>
      <point x="884" y="1430" type="curve" smooth="yes"/>
      <point x="460" y="1430"/>
      <point x="142" y="1024"/>
      <point x="142" y="566" type="curve" smooth="yes"/>
      <point x="142" y="210"/>
      <point x="362" y="-30"/>
    </contour>
  </outline>
</glyph>
<glyph name="_part.cy-desc-lc" format="2">
  <advance width="1200"/>
  <anchor x="970" y="0" name="_descender"/>
  <outline>
    <contour>
      <point x="1024" y="-364" type="line"/>
      <point x="1156" y="-236" type="line"/>
      <point x="1228" y="104" type="line"/>
      <point x="912" y="104" type="line"/>
      <point x="890" y="0" type="line"/>
      <point x="1102" y="0" type="line"/>
    </contour>
  </outline>
</glyph>
<glyph name="a.ss01" format="2">
  <advance width="1261"/>
  <anchor x="527" y="0" name="bottom"/>
  <anchor x="989" y="0" name="ogonek"/>
  <anchor x="679" y="960" name="top"/>
  <outline>
    <contour>
      <point x="541" y="-30" type="curve" smooth="yes"/>
      <point x="725" y="-30"/>
      <point x="839" y="54"/>
      <point x="933" y="168" type="curve"/>
      <point x="923" y="212" type="line"/>
      <point x="877" y="0" type="line"/>
      <point x="989" y="0" type="line"/>
      <point x="1201" y="1000" type="line"/>
      <point x="1007" y="808" type="line"/>
      <point x="995" y="748" type="line"/>
      <point x="1059" y="748" type="line"/>
      <point x="993" y="884"/>
      <point x="865" y="990"/>
      <point x="645" y="990" type="curve" smooth="yes"/>
      <point x="333" y="990"/>
      <point x="79" y="730"/>
      <point x="79" y="416" type="curve" smooth="yes"/>
      <point x="79" y="168"/>
      <point x="253" y="-30"/>
    </contour>
    <contour>
      <point x="551" y="78" type="curve" smooth="yes"/>
      <point x="337" y="78"/>
      <point x="201" y="212"/>
      <point x="201" y="418" type="curve" smooth="yes"/>
      <point x="201" y="678"/>
      <point x="377" y="882"/>
      <point x="631" y="882" type="curve" smooth="yes"/>
      <point x="845" y="882"/>
      <point x="985" y="750"/>
      <point x="985" y="540" type="curve" smooth="yes"/>
      <point x="985" y="278"/>
      <point x="807" y="78"/>
    </contour>
  </outline>
</glyph>
<glyph name="caroncomb.alt" format="2">
  <anchor x="108" y="1440" name="_caron"/>
  <outline>
    <contour>
      <point x="132" y="1052" type="line"/>
      <point x="215" y="1052" type="line"/>
      <point x="342" y="1440" type="line"/>
      <point x="216" y="1440" type="line"/>
    </contour>
  </outline>
</glyph>
<glyph name="dblgravecomb.case" format="2">
  <anchor x="637" y="1398" name="_top"/>
  <outline>
    <contour>
      <point x="909" y="1592" type="line"/>
      <point x="783" y="1904" type="line"/>
      <point x="665" y="1904" type="line"/>
      <point x="803" y="1592" type="line"/>
    </contour>
    <contour>
      <point x="559" y="1592" type="line"/>
      <point x="429" y="1904" type="line"/>
      <point x="313" y="1904" type="line"/>
      <point x="455" y="1592" type="line"/>
    </contour>
  </outline>
</glyph>
<glyph name="dblgravecomb.narrow" format="2">
  <anchor x="422" y="960" name="_top"/>
  <outline>
    <contour>
      <point x="656" y="1170" type="line"/>
      <point x="616" y="1504" type="line"/>
      <point x="504" y="1504" type="line"/>
      <point x="554" y="1170" type="line"/>
    </contour>
    <contour>
      <point x="382" y="1170" type="line"/>
      <point x="342" y="1504" type="line"/>
      <point x="228" y="1504" type="line"/>
      <point x="282" y="1170" type="line"/>
    </contour>
  </outline>
</glyph>
<glyph name="hookabovecomb.case" format="2">
  <anchor x="429" y="1398" name="_top"/>
  <outline>
    <contour>
      <point x="423" y="1592" type="curve"/>
      <point x="513" y="1592" type="line"/>
      <point x="491" y="1668"/>
      <point x="507" y="1688"/>
      <point x="609" y="1722" type="curve" smooth="yes"/>
      <point x="701" y="1752"/>
      <point x="777" y="1790"/>
      <point x="777" y="1876" type="curve" smooth="yes"/>
      <point x="777" y="1974"/>
      <point x="649" y="2024"/>
      <point x="511" y="2024" type="curve" smooth="yes"/>
      <point x="447" y="2024"/>
      <point x="387" y="2014"/>
      <point x="333" y="1998" type="curve"/>
      <point x="317" y="1914" type="line"/>
      <point x="373" y="1932"/>
      <point x="439" y="1942"/>
      <point x="513" y="1942" type="curve" smooth="yes"/>
      <point x="605" y="1942"/>
      <point x="677" y="1910"/>
      <point x="677" y="1856" type="curve" smooth="yes"/>
      <point x="677" y="1804"/>
      <point x="625" y="1790"/>
      <point x="543" y="1768" type="curve" smooth="yes"/>
      <point x="429" y="1738"/>
      <point x="383" y="1688"/>
    </contour>
  </outline>
</glyph>
<glyph name="horncomb.alt_case" format="2">
  <anchor x="315" y="1400" name="_horn"/>
  <outline>
    <contour>
      <point x="393" y="1186" type="curve" smooth="yes"/>
      <point x="527" y="1186"/>
      <point x="611" y="1290"/>
      <point x="611" y="1404" type="curve" smooth="yes"/>
      <point x="611" y="1452"/>
      <point x="598" y="1508"/>
      <point x="569" y="1558" type="curve"/>
      <point x="467" y="1558" type="line"/>
      <point x="496" y="1494"/>
      <point x="504" y="1439"/>
      <point x="502" y="1398" type="curve" smooth="yes"/>
      <point x="503" y="1324"/>
      <point x="465" y="1270"/>
      <point x="383" y="1270" type="curve" smooth="yes"/>
      <point x="335" y="1270"/>
      <point x="257" y="1304"/>
      <point x="193" y="1342" type="curve"/>
      <point x="179" y="1270" type="line"/>
      <point x="245" y="1228"/>
      <point x="323" y="1186"/>
    </contour>
  </outline>
</glyph>
<glyph name="horncomb.case" format="2">
  <anchor x="654" y="1400" name="_horn"/>
  <outline>
    <contour>
      <point x="746" y="1220" type="curve" smooth="yes"/>
      <point x="892" y="1213"/>
      <point x="974" y="1308"/>
      <point x="974" y="1416" type="curve" smooth="yes"/>
      <point x="974" y="1462"/>
      <point x="961" y="1510"/>
      <point x="929" y="1556" type="curve"/>
      <point x="820" y="1556" type="line"/>
      <point x="850" y="1504"/>
      <point x="866" y="1453"/>
      <point x="866" y="1410" type="curve" smooth="yes"/>
      <point x="866" y="1344"/>
      <point x="827" y="1298"/>
      <point x="740" y="1302" type="curve" smooth="yes"/>
      <point x="640" y="1307"/>
      <point x="458" y="1430"/>
      <point x="212" y="1430" type="curve"/>
      <point x="198" y="1364" type="line"/>
      <point x="459" y="1352"/>
      <point x="614" y="1226"/>
    </contour>
  </outline>
</glyph>
<glyph name="one.numr" format="2">
  <advance width="616"/>
  <outline>
    <contour>
      <point x="340" y="490" type="line"/>
      <point x="440" y="490" type="line"/>
      <point x="636" y="1420" type="line"/>
      <point x="628" y="1420" type="line"/>
      <point x="250" y="1292" type="line"/>
      <point x="230" y="1200" type="line"/>
      <point x="510" y="1290" type="line"/>
    </contour>
  </outline>
</glyph>
<glyph name="one.tf" format="2">
  <advance width="1296"/>
  <outline>
    <contour>
      <point x="109" y="0" type="line"/>
      <point x="1053" y="0" type="line"/>
      <point x="1075" y="108" type="line"/>
      <point x="681" y="108" type="line"/>
      <point x="963" y="1430" type="line"/>
      <point x="953" y="1430" type="line"/>
      <point x="405" y="1239" type="line"/>
      <point x="383" y="1134" type="line"/>
      <point x="821" y="1284" type="line"/>
      <point x="569" y="108" type="line"/>
      <point x="131" y="108" type="line"/>
    </contour>
  </outline>
</glyph>
<glyph name="ordfeminine.ss01" format="2">
  <advance width="894"/>
  <anchor x="498" y="722" name="bottom"/>
  <anchor x="816" y="722" name="ogonek"/>
  <anchor x="598" y="1354" name="top"/>
  <outline>
    <contour>
      <point x="500" y="702" type="curve" smooth="yes"/>
      <point x="622" y="702"/>
      <point x="700" y="756"/>
      <point x="760" y="832" type="curve"/>
      <point x="752" y="868" type="line"/>
      <point x="720" y="722" type="line"/>
      <point x="816" y="722" type="line"/>
      <point x="956" y="1380" type="line"/>
      <point x="804" y="1256" type="line"/>
      <point x="794" y="1210" type="line"/>
      <point x="844" y="1216" type="line"/>
      <point x="802" y="1306"/>
      <point x="710" y="1374"/>
      <point x="568" y="1374" type="curve" smooth="yes"/>
      <point x="356" y="1374"/>
      <point x="190" y="1202"/>
      <point x="190" y="996" type="curve" smooth="yes"/>
      <point x="190" y="830"/>
      <point x="310" y="702"/>
    </contour>
    <contour>
      <point x="516" y="796" type="curve" smooth="yes"/>
      <point x="384" y="796"/>
      <point x="296" y="878"/>
      <point x="296" y="1002" type="curve" smooth="yes"/>
      <point x="296" y="1160"/>
      <point x="408" y="1280"/>
      <point x="564" y="1280" type="curve" smooth="yes"/>
      <point x="696" y="1280"/>
      <point x="786" y="1200"/>
      <point x="786" y="1072" type="curve" smooth="yes"/>
      <point x="786" y="914"/>
      <point x="672" y="796"/>
    </contour>
  </outline>
</glyph>
<glyph name="softsign-cy.loclBGR" format="2">
  <advance width="1077"/>
  <outline>
    <contour>
      <point x="518" y="-20" type="curve" smooth="yes"/>
      <point x="766" y="-20"/>
      <point x="966" y="146"/>
      <point x="966" y="372" type="curve" smooth="yes"/>
      <point x="966" y="556"/>
      <point x="816" y="704"/>
      <point x="584" y="704" type="curve" smooth="yes"/>
      <point x="462" y="704"/>
      <point x="340" y="656"/>
      <point x="274" y="580" type="curve"/>
      <point x="278" y="554" type="line"/>
      <point x="372" y="1000" type="line"/>
      <point x="230" y="858" type="line"/>
      <point x="130" y="384" type="line" smooth="yes"/>
      <point x="80" y="148"/>
      <point x="256" y="-20"/>
    </contour>
    <contour>
      <point x="524" y="82" type="curve" smooth="yes"/>
      <point x="356" y="82"/>
      <point x="238" y="172"/>
      <point x="238" y="312" type="curve" smooth="yes"/>
      <point x="238" y="472"/>
      <point x="366" y="600"/>
      <point x="556" y="600" type="curve" smooth="yes"/>
      <point x="728" y="600"/>
      <point x="846" y="510"/>
      <point x="846" y="368" type="curve" smooth="yes"/>
      <point x="846" y="212"/>
      <point x="716" y="82"/>
    </contour>
  </outline>
</glyph>
<glyph name="three.numr" format="2">
  <advance width="816"/>
  <outline>
    <contour>
      <point x="406" y="470" type="curve" smooth="yes"/>
      <point x="602" y="470"/>
      <point x="764" y="598"/>
      <point x="764" y="784" type="curve" smooth="yes"/>
      <point x="764" y="934"/>
      <point x="630" y="1014"/>
      <point x="466" y="1022" type="curve"/>
      <point x="840" y="1316" type="line"/>
      <point x="856" y="1400" type="line"/>
      <point x="290" y="1400" type="line"/>
      <point x="250" y="1308" type="line"/>
      <point x="696" y="1308" type="line"/>
      <point x="314" y="1006" type="line"/>
      <point x="332" y="942" type="line"/>
      <point x="356" y="946"/>
      <point x="384" y="948"/>
      <point x="412" y="948" type="curve" smooth="yes"/>
      <point x="564" y="948"/>
      <point x="658" y="884"/>
      <point x="658" y="780" type="curve" smooth="yes"/>
      <point x="658" y="650"/>
      <point x="554" y="566"/>
      <point x="410" y="566" type="curve" smooth="yes"/>
      <point x="310" y="566"/>
      <point x="210" y="600"/>
      <point x="144" y="656" type="curve"/>
      <point x="122" y="554" type="line"/>
      <point x="188" y="505"/>
      <point x="298" y="470"/>
    </contour>
  </outline>
</glyph>
<glyph name="tonos.case" format="2">
  <advance width="433"/>
  <anchor x="601" y="1400" name="_topleft"/>
  <outline>
    <contour>
      <point x="281" y="1158" type="line"/>
      <point x="389" y="1158" type="line"/>
      <point x="577" y="1470" type="line"/>
      <point x="457" y="1470" type="line"/>
    </contour>
  </outline>
</glyph>
<glyph name="two.dnom" format="2">
  <advance width="828"/>
  <outline>
    <contour>
      <point x="8" y="0" type="line"/>
      <point x="612" y="0" type="line"/>
      <point x="652" y="92" type="line"/>
      <point x="168" y="92" type="line"/>
      <point x="386" y="250" type="line" smooth="yes"/>
      <point x="588" y="396"/>
      <point x="734" y="524"/>
      <point x="734" y="692" type="curve" smooth="yes"/>
      <point x="734" y="838"/>
      <point x="616" y="930"/>
      <point x="446" y="930" type="curve" smooth="yes"/>
      <point x="365" y="930"/>
      <point x="283" y="910"/>
      <point x="217" y="872" type="curve"/>
      <point x="196" y="766" type="line"/>
      <point x="264" y="812"/>
      <point x="346" y="836"/>
      <point x="422" y="836" type="curve" smooth="yes"/>
      <point x="550" y="836"/>
      <point x="630" y="776"/>
      <point x="630" y="680" type="curve" smooth="yes"/>
      <point x="630" y="536"/>
      <point x="468" y="410"/>
      <point x="282" y="272" type="curve" smooth="yes"/>
      <point x="26" y="82" type="line"/>
    </contour>
  </outline>
</glyph>
<glyph name="two.numr" format="2">
  <advance width="828"/>
  <outline>
    <contour>
      <point x="112" y="490" type="line"/>
      <point x="716" y="490" type="line"/>
      <point x="756" y="582" type="line"/>
      <point x="272" y="582" type="line"/>
      <point x="490" y="740" type="line" smooth="yes"/>
      <point x="692" y="886"/>
      <point x="838" y="1014"/>
      <point x="838" y="1182" type="curve" smooth="yes"/>
      <point x="838" y="1328"/>
      <point x="720" y="1420"/>
      <point x="550" y="1420" type="curve" smooth="yes"/>
      <point x="469" y="1420"/>
      <point x="387" y="1400"/>
      <point x="321" y="1362" type="curve"/>
      <point x="300" y="1256" type="line"/>
      <point x="368" y="1302"/>
      <point x="450" y="1326"/>
      <point x="526" y="1326" type="curve" smooth="yes"/>
      <point x="654" y="1326"/>
      <point x="734" y="1266"/>
      <point x="734" y="1170" type="curve" smooth="yes"/>
      <point x="734" y="1024"/>
      <point x="572" y="900"/>
      <point x="386" y="762" type="curve" smooth="yes"/>
      <point x="130" y="572" type="line"/>
    </contour>
  </outline>
</glyph>
<glyph name="ze-cy.loclBGR" format="2">
  <advance width="973"/>
  <anchor x="249" y="-420" name="bottom"/>
  <anchor x="529" y="960" name="top"/>
  <outline>
    <contour>
      <point x="287" y="-448" type="curve" smooth="yes"/>
      <point x="571" y="-448"/>
      <point x="773" y="-280"/>
      <point x="773" y="-46" type="curve" smooth="yes"/>
      <point x="773" y="108"/>
      <point x="687" y="240"/>
      <point x="545" y="290" type="curve"/>
      <point x="695" y="316"/>
      <point x="881" y="462"/>
      <point x="881" y="664" type="curve" smooth="yes"/>
      <point x="881" y="854"/>
      <point x="719" y="988"/>
      <point x="501" y="988" type="curve" smooth="yes"/>
      <point x="371" y="988"/>
      <point x="255" y="956"/>
      <point x="155" y="896" type="curve"/>
      <point x="129" y="772" type="line"/>
      <point x="227" y="842"/>
      <point x="345" y="880"/>
      <point x="483" y="880" type="curve" smooth="yes"/>
      <point x="645" y="880"/>
      <point x="761" y="794"/>
      <point x="761" y="638" type="curve" smooth="yes"/>
      <point x="761" y="456"/>
      <point x="601" y="346"/>
      <point x="375" y="346" type="curve" smooth="yes"/>
      <point x="189" y="346" type="line"/>
      <point x="143" y="242" type="line"/>
      <point x="341" y="242" type="line" smooth="yes"/>
      <point x="525" y="242"/>
      <point x="651" y="124"/>
      <point x="651" y="-46" type="curve" smooth="yes"/>
      <point x="651" y="-228"/>
      <point x="521" y="-340"/>
      <point x="307" y="-340" type="curve" smooth="yes"/>
      <point x="151" y="-340"/>
      <point x="3" y="-280"/>
      <point x="-85" y="-180" type="curve"/>
      <point x="-111" y="-302" type="line"/>
      <point x="-9" y="-390"/>
      <point x="149" y="-448"/>
    </contour>
  </outline>
</glyph>
